<svg width="19" height="21" viewBox="0 0 19 21" fill="none" xmlns="http://www.w3.org/2000/svg">
<path d="M9.375 5.99932C8.55915 5.99932 7.76163 6.24125 7.08327 6.69451C6.40492 7.14777 5.87621 7.79201 5.564 8.54575C5.25179 9.2995 5.1701 10.1289 5.32926 10.9291C5.48843 11.7292 5.88129 12.4642 6.45818 13.0411C7.03508 13.618 7.77008 14.0109 8.57025 14.1701C9.37042 14.3292 10.1998 14.2475 10.9536 13.9353C11.7073 13.6231 12.3516 13.0944 12.8048 12.4161C13.2581 11.7377 13.5 10.9402 13.5 10.1243C13.4988 9.03069 13.0638 7.9822 12.2904 7.20888C11.5171 6.43556 10.4686 6.00056 9.375 5.99932ZM9.375 13.4993C8.70749 13.4993 8.05497 13.3014 7.49995 12.9305C6.94493 12.5597 6.51235 12.0326 6.25691 11.4159C6.00146 10.7992 5.93462 10.1206 6.06485 9.46589C6.19507 8.81121 6.51651 8.20984 6.98851 7.73784C7.46052 7.26584 8.06188 6.9444 8.71657 6.81417C9.37126 6.68395 10.0499 6.75078 10.6666 7.00623C11.2833 7.26168 11.8104 7.69426 12.1812 8.24927C12.5521 8.80429 12.75 9.45681 12.75 10.1243C12.75 11.0194 12.3944 11.8779 11.7615 12.5108C11.1285 13.1437 10.2701 13.4993 9.375 13.4993ZM18.165 4.65495L9.915 0.138073C9.74943 0.0474816 9.56373 0 9.375 0C9.18627 0 9.00057 0.0474816 8.835 0.138073L0.585 4.65495C0.408018 4.75178 0.260332 4.89443 0.157411 5.06794C0.05449 5.24146 0.000121433 5.43946 0 5.6412V14.6075C0.000121433 14.8092 0.05449 15.0072 0.157411 15.1807C0.260332 15.3542 0.408018 15.4969 0.585 15.5937L8.835 20.1106C9.00043 20.2016 9.18618 20.2493 9.375 20.2493C9.56382 20.2493 9.74957 20.2016 9.915 20.1106L18.165 15.5937C18.342 15.4969 18.4897 15.3542 18.5926 15.1807C18.6955 15.0072 18.7499 14.8092 18.75 14.6075V5.6412C18.7499 5.43946 18.6955 5.24146 18.5926 5.06794C18.4897 4.89443 18.342 4.75178 18.165 4.65495ZM18 14.6075C17.9998 14.6746 17.9817 14.7405 17.9474 14.7982C17.9131 14.8559 17.8639 14.9033 17.805 14.9356L9.555 19.4524C9.49981 19.4826 9.43791 19.4985 9.375 19.4985C9.31209 19.4985 9.25019 19.4826 9.195 19.4524L0.945 14.9365C0.88596 14.9042 0.836701 14.8566 0.802391 14.7987C0.768081 14.7408 0.749984 14.6748 0.75 14.6075V5.6412C0.750152 5.57406 0.768328 5.50819 0.802629 5.45047C0.83693 5.39275 0.886099 5.3453 0.945 5.31307L9.195 0.796198C9.25002 0.765492 9.31199 0.749372 9.375 0.749372C9.43801 0.749372 9.49998 0.765492 9.555 0.796198L17.805 5.31307C17.8639 5.3453 17.9131 5.39275 17.9474 5.45047C17.9817 5.50819 17.9998 5.57406 18 5.6412V14.6075Z" fill="black"/>
</svg>
